/* XPM */
static char * mplayer_16x16_xpm[] = {
"16 16 32 1",
" 	c #006699",
".	c #009999",
"+	c #333333",
"@	c #333366",
"#	c #333399",
"$	c #336666",
"%	c #336699",
"&	c #339999",
"*	c #33CCCC",
"=	c #33CCFF",
"-	c #444444",
";	c #555555",
">	c #666666",
",	c #666699",
"'	c #669999",
")	c #6699CC",
"!	c #66CCCC",
"~	c #66CCFF",
"{	c #777777",
"]	c #888888",
"^	c #999999",
"/	c #9999CC",
"(	c #99CCFF",
"_	c #99FFFF",
":	c #AAAAAA",
"<	c #BBBBBB",
"[	c #CCCCCC",
"}	c #CCCCFF",
"|	c #CCFFFF",
"1	c #DDDDDD",
"2	c #EEEEEE",
"3	c #FFFFFF",
"3333333333333333",
"333333333321/133",
"33332<//,,####33",
"|333333333333323",
"=3333333333333<3",
"=3333333333333'3",
"*3#/[,<3333333)3",
"(3//[/{;]]1:{1!3",
"333333333:3333~3",
"33333333333333~2",
"3333333333)13,)2",
"3/2222221[}>+113",
"32@@@;^133/>2:33",
"33333333333,,^33",
"3333333333333333",
"3333333333333333"};
