/* XPM */
static char * oowriter_16x16_xpm[] = {
"16 16 204 2",
"  	c None",
". 	c #688491",
"+ 	c #587685",
"@ 	c #456777",
"# 	c #3E5C6B",
"$ 	c #38525E",
"% 	c #3B505B",
"& 	c #5E717D",
"* 	c #5D6F7A",
"= 	c #5B6C78",
"- 	c #5C6E79",
"; 	c #60727F",
"> 	c #697E8B",
", 	c #718695",
"' 	c #718694",
") 	c #6C7F8C",
"! 	c #BBC8CE",
"~ 	c #B1BFC6",
"{ 	c #A2B2B8",
"] 	c #909FA6",
"^ 	c #7C878C",
"/ 	c #889092",
"( 	c #AAAFB1",
"_ 	c #A3A7AA",
": 	c #E0E1E2",
"< 	c #F7F7F7",
"[ 	c #FFFFFF",
"} 	c #C5CACD",
"| 	c #ABB5BB",
"1 	c #B5BFC5",
"2 	c #B4BDC2",
"3 	c #9BA5AC",
"4 	c #DEE4E7",
"5 	c #D7DEE2",
"6 	c #C5CED1",
"7 	c #B0B7B9",
"8 	c #E9EAEB",
"9 	c #FDFDFD",
"0 	c #8C8E90",
"a 	c #797B7E",
"b 	c #888C8F",
"c 	c #A8ACAF",
"d 	c #C3C9CC",
"e 	c #D6DBDE",
"f 	c #D8DDE0",
"g 	c #B9C0C4",
"h 	c #C4CED4",
"i 	c #B3C0C6",
"j 	c #9AA7AE",
"k 	c #919A9F",
"l 	c #9CA0A4",
"m 	c #5A6063",
"n 	c #565B5E",
"o 	c #5B6063",
"p 	c #5E6367",
"q 	c #73787C",
"r 	c #CBCDCF",
"s 	c #AFB5B8",
"t 	c #ACB6BC",
"u 	c #BAC4CA",
"v 	c #B9C1C7",
"w 	c #A8B0B5",
"x 	c #A3B1B8",
"y 	c #88979F",
"z 	c #67777E",
"A 	c #505D63",
"B 	c #444D52",
"C 	c #3A4245",
"D 	c #3F4549",
"E 	c #DFE0E1",
"F 	c #E2E4E5",
"G 	c #94A0A7",
"H 	c #9BA9B2",
"I 	c #A1AFB7",
"J 	c #9BA7AE",
"K 	c #8D989F",
"L 	c #7F9199",
"M 	c #5D6E76",
"N 	c #8E979C",
"O 	c #546168",
"P 	c #64737C",
"Q 	c #72828D",
"R 	c #7F909D",
"S 	c #8799A6",
"T 	c #8597A2",
"U 	c #7C8B95",
"V 	c #717F87",
"W 	c #6B7D87",
"X 	c #C4CACC",
"Y 	c #BFC3C6",
"Z 	c #A8ADAF",
"` 	c #7A8083",
" .	c #4B5B65",
"..	c #5B6D79",
"+.	c #687E8C",
"@.	c #708795",
"#.	c #748B9B",
"$.	c #748C9B",
"%.	c #6D818F",
"&.	c #60707B",
"*.	c #9DAAB0",
"=.	c #9EA9AE",
"-.	c #253E4A",
";.	c #1B323E",
">.	c #192D36",
",.	c #1B2C35",
"'.	c #4E636F",
").	c #5A707F",
"!.	c #647D8D",
"~.	c #6A8597",
"{.	c #6C8799",
"].	c #6B8697",
"^.	c #667F90",
"/.	c #596F7E",
"(.	c #4C5E6A",
"_.	c #5C7581",
":.	c #425E6B",
"<.	c #254556",
"[.	c #193948",
"}.	c #16313D",
"|.	c #2B4350",
"1.	c #BCC5CB",
"2.	c #F6F6F6",
"3.	c #FBFBFB",
"4.	c #F4F6F7",
"5.	c #F1F4F6",
"6.	c #758B99",
"7.	c #4C6271",
"8.	c #415360",
"9.	c #627D8B",
"0.	c #486876",
"a.	c #244A5E",
"b.	c #193B4B",
"c.	c #15303E",
"d.	c #405C6C",
"e.	c #627E91",
"f.	c #5F7A8D",
"g.	c #566E7F",
"h.	c #475C6A",
"i.	c #40515E",
"j.	c #647F8D",
"k.	c #496978",
"l.	c #22495C",
"m.	c #183849",
"n.	c #132D3B",
"o.	c #4E6A7B",
"p.	c #607C8E",
"q.	c #5D7789",
"r.	c #52697A",
"s.	c #445764",
"t.	c #617C89",
"u.	c #476674",
"v.	c #204558",
"w.	c #163545",
"x.	c #132B38",
"y.	c #536D7F",
"z.	c #D3DADF",
"A.	c #788D9C",
"B.	c #597384",
"C.	c #4D6574",
"D.	c #40525E",
"E.	c #5D7784",
"F.	c #44626F",
"G.	c #1E4254",
"H.	c #153342",
"I.	c #122936",
"J.	c #516B7B",
"K.	c #556E7E",
"L.	c #4A616F",
"M.	c #3D4F5A",
"N.	c #59727F",
"O.	c #415D6B",
"P.	c #1D4051",
"Q.	c #163241",
"R.	c #112935",
"S.	c #48606E",
"T.	c #566E7E",
"U.	c #526B7A",
"V.	c #4A5E6D",
"W.	c #3E4F5B",
"X.	c #485862",
"Y.	c #5A7785",
"Z.	c #416272",
"`.	c #21475A",
" +	c #183A4A",
".+	c #15313E",
"++	c #435E6F",
"@+	c #C7D0D7",
"#+	c #FDFDFE",
"$+	c #D7DDE2",
"%+	c #5B7282",
"&+	c #485C6B",
"*+	c #455865",
"=+	c #4B6C7C",
"-+	c #375B6D",
";+	c #1E475B",
">+	c #1A3E50",
",+	c #183948",
"'+	c #325060",
")+	c #607C8F",
"!+	c #5F7B8D",
"~+	c #597385",
"{+	c #516978",
"]+	c #4B6170",
". + @ # $ % & * = - ; > , ' )   ",
"! ~ { ] ^ / ( _ : < [ } | 1 2 3 ",
"4 5 6 7 8 [ 9 [ 0 a b c d e f g ",
"h i j k l m n o p q r s t u v w ",
"x y z A B C D E [ < F G H I J K ",
"L M N 9 [ [ [ [ O P Q R S T U V ",
"W X [ Y Z ` 9  ...+.@.#.$.%.&.  ",
"*.=.-.;.>.,.'.).!.~.{.].^./.(.  ",
"_.:.<.[.}.|.1.2.3.[ 4.5.6.7.8.  ",
"9.0.a.b.c.d.e.e.e.e.e.f.g.h.i.  ",
"j.k.l.m.n.o.p.p.p.p.p.q.r.s.    ",
"t.u.v.w.x.y.z.[ [ [ A.B.C.D.    ",
"E.F.G.H.I.J.B.B.B.B.B.K.L.M.    ",
"N.O.P.Q.R.S.T.T.T.T.T.U.V.W.X.  ",
"Y.Z.`. +.+++@+[ [ [ #+$+%+&+*+  ",
"=+-+;+>+,+'+)+)+)+)+)+!+~+{+]+  "};
