/* XPM */
static char * openoffice_16x16_xpm[] = {
"16 16 204 2",
"  	c None",
". 	c #688491",
"+ 	c #587685",
"@ 	c #456777",
"# 	c #3E5C6B",
"$ 	c #38525E",
"% 	c #464B4B",
"& 	c #9B5022",
"* 	c #994E21",
"= 	c #964D20",
"- 	c #984E21",
"; 	c #9F5121",
"> 	c #AE5925",
", 	c #B95F28",
"' 	c #B7602A",
") 	c #AC5C2B",
"! 	c #BBC8CE",
"~ 	c #B1BFC6",
"{ 	c #A2B2B8",
"] 	c #909FA6",
"^ 	c #7C878C",
"/ 	c #8B8E90",
"( 	c #B5A9A2",
"_ 	c #B29F94",
": 	c #E4DEDB",
"< 	c #F8F6F5",
"[ 	c #FFFFFF",
"} 	c #D5C1B5",
"| 	c #CCA389",
"1 	c #D7AD93",
"2 	c #D1AD96",
"3 	c #BE9278",
"4 	c #DEE4E7",
"5 	c #D7DEE2",
"6 	c #C5CED1",
"7 	c #B0B7B9",
"8 	c #E9EAEB",
"9 	c #FDFDFD",
"0 	c #948A84",
"a 	c #82766D",
"b 	c #96867B",
"c 	c #B7A498",
"d 	c #D5BFB2",
"e 	c #E7D2C4",
"f 	c #E7D5C9",
"g 	c #D0B4A2",
"h 	c #C4CED4",
"i 	c #B3C0C6",
"j 	c #9AA7AE",
"k 	c #919A9F",
"l 	c #9CA0A4",
"m 	c #5C5F60",
"n 	c #5E5752",
"o 	c #6C5749",
"p 	c #705A4C",
"q 	c #846F62",
"r 	c #D3C9C2",
"s 	c #C3A99A",
"t 	c #CCA58C",
"u 	c #DAB29A",
"v 	c #D4B39E",
"w 	c #C3A18C",
"x 	c #A3B1B8",
"y 	c #88979F",
"z 	c #67777E",
"A 	c #505D63",
"B 	c #444D52",
"C 	c #3A4245",
"D 	c #4A3F38",
"E 	c #E3DEDB",
"F 	c #E9E0DB",
"G 	c #BB8B6E",
"H 	c #CA8F6C",
"I 	c #CF9673",
"J 	c #C19175",
"K 	c #B1856A",
"L 	c #7F9199",
"M 	c #5D6E76",
"N 	c #8E979C",
"O 	c #7D4A2C",
"P 	c #955934",
"Q 	c #A8643B",
"R 	c #BB7042",
"S 	c #C67747",
"T 	c #C0764A",
"U 	c #AD704B",
"V 	c #9D6645",
"W 	c #6B7D87",
"X 	c #C4CACC",
"Y 	c #BFC3C6",
"Z 	c #A8ADAF",
"` 	c #7A8083",
" .	c #FDFDFC",
"..	c #7F3F18",
"+.	c #994C1D",
"@.	c #B05721",
"#.	c #BC5D24",
"$.	c #C36125",
"%.	c #C26126",
"&.	c #B25C27",
"*.	c #985127",
"=.	c #9DAAB0",
"-.	c #9EA9AE",
";.	c #253E4A",
">.	c #1B323E",
",.	c #192D36",
"'.	c #20292E",
").	c #913F0D",
"!.	c #A5480D",
"~.	c #D8B29A",
"{.	c #F9F5F2",
"].	c #FAF1EB",
"^.	c #EBC2AA",
"/.	c #BA5110",
"(.	c #A34710",
"_.	c #883D10",
":.	c #5C7581",
"<.	c #425E6B",
"[.	c #254556",
"}.	c #193948",
"|.	c #16313D",
"1.	c #483426",
"2.	c #B74703",
"3.	c #D89C78",
"4.	c #F5F5F4",
"5.	c #C44C03",
"6.	c #E4BDA5",
"7.	c #963B03",
"8.	c #7F3203",
"9.	c #627D8B",
"0.	c #496978",
"a.	c #254B5F",
"b.	c #193C4C",
"c.	c #15313F",
"d.	c #7A3E18",
"e.	c #C44B01",
"f.	c #BF4901",
"g.	c #8F3701",
"h.	c #7C2F02",
"i.	c #65818F",
"j.	c #4B6C7A",
"k.	c #234A5E",
"l.	c #19394A",
"m.	c #142E3C",
"n.	c #9B430D",
"o.	c #C14A01",
"p.	c #FFFEFE",
"q.	c #F9F9F9",
"r.	c #FDF9F7",
"s.	c #FEFCFB",
"t.	c #FDFAF8",
"u.	c #FEFDFD",
"v.	c #883401",
"w.	c #637F8C",
"x.	c #21485B",
"y.	c #173748",
"z.	c #132C3A",
"A.	c #A84508",
"B.	c #BD4901",
"C.	c #B64601",
"D.	c #823201",
"E.	c #607B88",
"F.	c #476674",
"G.	c #204558",
"H.	c #163545",
"I.	c #132B38",
"J.	c #A54307",
"K.	c #B74601",
"L.	c #B04301",
"M.	c #7E3101",
"N.	c #5C7582",
"O.	c #43616F",
"P.	c #1E4254",
"Q.	c #163443",
"R.	c #122B37",
"S.	c #8F3E0B",
"T.	c #AF4301",
"U.	c #E1B79E",
"V.	c #DEB69E",
"W.	c #7D3101",
"X.	c #546F7C",
"Y.	c #3B5867",
"Z.	c #1D4051",
"`.	c #132C38",
" +	c #713814",
".+	c #A74001",
"++	c #E0BBA4",
"@+	c #F8F8F6",
"#+	c #FBF7F4",
"$+	c #FCF8F6",
"%+	c #D9B8A4",
"&+	c #803001",
"*+	c #833C0F",
"=+	c #4A6A7A",
"-+	c #355869",
";+	c #1D4458",
">+	c #193C4D",
",+	c #173745",
"'+	c #513B2A",
")+	c #B84601",
"!+	c #B54501",
"~+	c #AA4101",
"{+	c #9B3B01",
"]+	c #923902",
". + @ # $ % & * = - ; > , ' )   ",
"! ~ { ] ^ / ( _ : < [ } | 1 2 3 ",
"4 5 6 7 8 [ 9 [ 0 a b c d e f g ",
"h i j k l m n o p q r s t u v w ",
"x y z A B C D E [ < F G H I J K ",
"L M N 9 [ [ [ [ O P Q R S T U V ",
"W X [ Y Z `  ...+.@.#.$.%.&.*.  ",
"=.-.;.>.,.'.).!.~.{.].^./.(._.  ",
":.<.[.}.|.1.2.3.4.5.5.[ 6.7.8.  ",
"9.0.a.b.c.d.e.[ e.e.e.f.[ g.h.  ",
"i.j.k.l.m.n.o.p.q.r.s.t.u.v.    ",
"w.0.x.y.z.A.B.t.B.B.B.C.p.D.    ",
"E.F.G.H.I.J.K.[ K.K.K.L.[ M.    ",
"N.O.P.Q.R.S.T.[ U.T.T.V.[ W.    ",
"X.Y.Z.Q.`. +.+++@+#+$+#+%+&+*+  ",
"=+-+;+>+,+'+)+)+)+)+)+!+~+{+]+  "};
