/* XPM */
static char * sjphone_16x16_xpm[] = {
"16 16 153 2",
"  	c None",
". 	c #969ABD",
"+ 	c #35A0F7",
"@ 	c #56BCF3",
"# 	c #79D5EE",
"$ 	c #6DC7EF",
"% 	c #5AB2F0",
"& 	c #959CBE",
"* 	c #55ADF0",
"= 	c #7592BA",
"- 	c #808EBA",
"; 	c #7683AC",
"> 	c #9196BA",
", 	c #9FA9C7",
"' 	c #6EC8EF",
") 	c #49B1F4",
"! 	c #449AF1",
"~ 	c #708BC2",
"{ 	c #C8DAEB",
"] 	c #C5D5E4",
"^ 	c #C9D9E8",
"/ 	c #C2D0E0",
"( 	c #8A93BB",
"_ 	c #6DC8EF",
": 	c #9BA6C7",
"< 	c #6084B4",
"[ 	c #748CBA",
"} 	c #818EB0",
"| 	c #C4D3E0",
"1 	c #8997BC",
"2 	c #7ED8CA",
"3 	c #85DBAE",
"4 	c #5AC677",
"5 	c #34AB8E",
"6 	c #6F7FAB",
"7 	c #52CDFB",
"8 	c #4EB3FB",
"9 	c #7AB0EB",
"0 	c #A1AFC8",
"a 	c #8D9ABF",
"b 	c #67CB8D",
"c 	c #87DC80",
"d 	c #B3F1C8",
"e 	c #84DA84",
"f 	c #24A891",
"g 	c #007DC3",
"h 	c #6C7FA8",
"i 	c #62E6FF",
"j 	c #53C3FE",
"k 	c #4EABF8",
"l 	c #8A98B7",
"m 	c #8E9BC0",
"n 	c #72CCED",
"o 	c #2FA857",
"p 	c #6CCF4A",
"q 	c #86DC77",
"r 	c #81D9E9",
"s 	c #16A0F0",
"t 	c #008645",
"u 	c #006D3B",
"v 	c #64759A",
"w 	c #76F4FD",
"x 	c #5DD4FF",
"y 	c #52B8FC",
"z 	c #8897B8",
"A 	c #8E9CC2",
"B 	c #4DAAE1",
"C 	c #0A85A2",
"D 	c #2FB022",
"E 	c #38B58E",
"F 	c #24AAFC",
"G 	c #028CDD",
"H 	c #007C21",
"I 	c #0A6627",
"J 	c #7386A4",
"K 	c #6EC9DA",
"L 	c #6DE8FF",
"M 	c #57C5FE",
"N 	c #8E9FC0",
"O 	c #8C99C0",
"P 	c #63CAF2",
"Q 	c #49A1DA",
"R 	c #0065CA",
"S 	c #027EB2",
"T 	c #038E5F",
"U 	c #0084BE",
"V 	c #007698",
"W 	c #026D12",
"X 	c #25654C",
"Y 	c #637193",
"Z 	c #A9B8D3",
"` 	c #60AECA",
" .	c #56D2F8",
"..	c #96AAC6",
"+.	c #7682B2",
"@.	c #61BAEF",
"#.	c #59B0DB",
"$.	c #014BB0",
"%.	c #005ABF",
"&.	c #006E54",
"*.	c #006F2E",
"=.	c #0053B6",
"-.	c #0F4E8B",
";.	c #325782",
">.	c #7D8DAA",
",.	c #7C84AA",
"'.	c #AEBAD4",
").	c #7F86AE",
"!.	c #B6C8DE",
"~.	c #7380B1",
"{.	c #0D52AB",
"].	c #0840A6",
"^.	c #0E5270",
"/.	c #06458E",
"(.	c #1042A8",
"_.	c #2C50B2",
":.	c #465278",
"<.	c #7C81A4",
"[.	c #8290B5",
"}.	c #8896B9",
"|.	c #6A73A0",
"1.	c #6C75A3",
"2.	c #69C1DC",
"3.	c #387AC0",
"4.	c #345CAD",
"5.	c #365ABC",
"6.	c #3352AA",
"7.	c #546488",
"8.	c #7F88A6",
"9.	c #828AAE",
"0.	c #7B82A7",
"a.	c #777DA4",
"b.	c #91A6C5",
"c.	c #B4BFD7",
"d.	c #6EC4DF",
"e.	c #5BA7C6",
"f.	c #5BA9CD",
"g.	c #718FB6",
"h.	c #C5D2E0",
"i.	c #929FBC",
"j.	c #7A7FA6",
"k.	c #8595B5",
"l.	c #C2D2E3",
"m.	c #7982AF",
"n.	c #6CC6EE",
"o.	c #708EB8",
"p.	c #C0CEDE",
"q.	c #BCCCDB",
"r.	c #BECDDD",
"s.	c #6973A2",
"t.	c #5C6395",
"u.	c #7280A8",
"v.	c #5F6698",
"                              . ",
"        + @ # # # # $ %       & ",
"      * # # # # # # # = - ; > , ",
"    * # # # ' ) ! ! ~ { ] ^ / ( ",
"  % # # # _         : < [ } | 1 ",
"  $ # # 2 3 4 5     6 7 8 9 0 a ",
"  # # b c d e f g   h i j k l m ",
"  # n o p q r s t u v w x y z A ",
"  # B C D E F G H I J K L M N O ",
"  P Q R S T U V W X Y Z `  ...+.",
"  @.#.$.%.&.*.=.-.;.>.,.'.).!.~.",
"  ! # {.].^./.(._.:.<.[.}.|.1.  ",
"    * 2.3.4.5.6.7.8.9.0.a.b.c.  ",
"      * # d.e.f.g.h.i.j.k.l.m.  ",
"        % n.# # # o.p.q.r.s.    ",
"                    t.u.v.      "};
