/* XPM */
static char * skype_16x16_xpm[] = {
"16 16 176 2",
"  	c None",
". 	c #D87625",
"+ 	c #DB7C2D",
"@ 	c #CF7021",
"# 	c #F5B37C",
"$ 	c #FBC9A0",
"% 	c #FBBE8C",
"& 	c #F5B27A",
"* 	c #EE9954",
"= 	c #F1984F",
"- 	c #EF9952",
"; 	c #E18B44",
"> 	c #C86C20",
", 	c #F0A668",
"' 	c #FECAA0",
") 	c #FFAA66",
"! 	c #FFA053",
"~ 	c #FD9A49",
"{ 	c #F69546",
"] 	c #F19850",
"^ 	c #F19C56",
"/ 	c #F3A05C",
"( 	c #EDA060",
"_ 	c #D48340",
": 	c #F5BE91",
"< 	c #FEB376",
"[ 	c #FF9E4E",
"} 	c #FC923B",
"| 	c #E17F2E",
"1 	c #E0A473",
"2 	c #ECCAAF",
"3 	c #EDCDB3",
"4 	c #E6B185",
"5 	c #E78B3F",
"6 	c #EB8C3E",
"7 	c #C87736",
"8 	c #F2BC8F",
"9 	c #FEAA66",
"0 	c #FF953F",
"a 	c #EA7F26",
"b 	c #EDCAAE",
"c 	c #F4F4F4",
"d 	c #E5D7CC",
"e 	c #E7D6C7",
"f 	c #F8EBE0",
"g 	c #F58B34",
"h 	c #DE7D2C",
"i 	c #B4611C",
"j 	c #E9A66F",
"k 	c #FDAA67",
"l 	c #FF9036",
"m 	c #E57D27",
"n 	c #FFFFFF",
"o 	c #EBCFB8",
"p 	c #FC923C",
"q 	c #FE8B2D",
"r 	c #F4A463",
"s 	c #DAD0C8",
"t 	c #F6A25B",
"u 	c #ED7B1D",
"v 	c #B3601C",
"w 	c #CD7731",
"x 	c #FCBB85",
"y 	c #FF9035",
"z 	c #F27E1F",
"A 	c #FBF5F0",
"B 	c #FCF7F3",
"C 	c #EDB78B",
"D 	c #E28E49",
"E 	c #E67314",
"F 	c #F88426",
"G 	c #FE831E",
"H 	c #F3760F",
"I 	c #BC6015",
"J 	c #A24E0A",
"K 	c #D47527",
"L 	c #FCC79B",
"M 	c #FF9239",
"N 	c #F6A25C",
"O 	c #E3D9D1",
"P 	c #ECECEC",
"Q 	c #F7F7F7",
"R 	c #FEFCFB",
"S 	c #F3C8A5",
"T 	c #F5750C",
"U 	c #F67307",
"V 	c #C4600E",
"W 	c #A14E09",
"X 	c #CE7023",
"Y 	c #FBC69B",
"Z 	c #FE943D",
"` 	c #F7801E",
" .	c #E97210",
"..	c #FB8627",
"+.	c #F4A05B",
"@.	c #EAB182",
"#.	c #EFDACA",
"$.	c #FCFCFC",
"%.	c #F5A96B",
"&.	c #FA7609",
"*.	c #D9680B",
"=.	c #AF540A",
"-.	c #B35E18",
";.	c #F2BA8C",
">.	c #FD9846",
",.	c #E67F2A",
"'.	c #F9EDE3",
").	c #F0A76B",
"!.	c #F17005",
"~.	c #F0720B",
"{.	c #E9944E",
"].	c #F9F9F9",
"^.	c #E9B88F",
"/.	c #FD7C12",
"(.	c #ED7009",
"_.	c #B65D13",
":.	c #E09960",
"<.	c #F7A25C",
"[.	c #F5862B",
"}.	c #F5E1D1",
"|.	c #F9F8F6",
"1.	c #EEC3A0",
"2.	c #E7B287",
"3.	c #F7EADF",
"4.	c #E0E0DF",
"5.	c #F2A96D",
"6.	c #FE7A0E",
"7.	c #F27107",
"8.	c #BA5D0F",
"9.	c #A04D09",
"0.	c #A2591D",
"a.	c #E2A36F",
"b.	c #F28C39",
"c.	c #F7923F",
"d.	c #E7B993",
"e.	c #E3CFBE",
"f.	c #E4D5C9",
"g.	c #E1C7B1",
"h.	c #F1B17B",
"i.	c #FF8A29",
"j.	c #FD7403",
"k.	c #EC6D06",
"l.	c #B0560B",
"m.	c #9B4A08",
"n.	c #A76025",
"o.	c #CE874D",
"p.	c #DC7E30",
"q.	c #E77E28",
"r.	c #EB8632",
"s.	c #EE8B39",
"t.	c #F3872F",
"u.	c #F87C16",
"v.	c #F97305",
"w.	c #F16F04",
"x.	c #D46306",
"y.	c #944709",
"z.	c #924505",
"A.	c #80400B",
"B.	c #B06222",
"C.	c #AD6124",
"D.	c #A45616",
"E.	c #A7540F",
"F.	c #BC5F12",
"G.	c #D26C18",
"H.	c #D3660B",
"I.	c #C35C09",
"J.	c #9B4B09",
"K.	c #8C4307",
"L.	c #673104",
"M.	c #793A06",
"N.	c #793905",
"O.	c #7C3A04",
"P.	c #A45515",
"Q.	c #AB5712",
"R.	c #A1500D",
"S.	c #894107",
"      . + @                     ",
"    # $ % & * = - ; >           ",
"  , ' ) ! ~ { ] ^ / ( _         ",
"  : < [ } | 1 2 3 4 5 6 7       ",
"  8 9 0 a b c d e c f g h i     ",
"  j k l m n o p q r s t u v     ",
"  w x y z A B C D E F G H I J   ",
"  K L M G N O P Q R S T U V W   ",
"  X Y Z `  ...+.@.#.$.%.&.*.=.  ",
"  -.;.>.,.'.).!.~.{.].^./.(._.  ",
"    :.<.[.}.|.1.2.3.4.5.6.7.8.9.",
"    0.a.b.c.d.e.f.g.h.i.j.k.l.m.",
"      n.o.p.q.r.s.t.u.v.w.x.y.z.",
"        A.B.C.D.E.F.G.H.I.J.K.  ",
"            L.M.N.O.P.Q.R.S.    ",
"                                "};
