/* XPM */
static char * sunbird_16x16_xpm[] = {
"16 16 205 2",
"  	c None",
". 	c #477A3E",
"+ 	c #398747",
"@ 	c #349041",
"# 	c #1B863D",
"$ 	c #298D43",
"% 	c #4E8B43",
"& 	c #397645",
"* 	c #4A744E",
"= 	c #339339",
"- 	c #04993D",
"; 	c #009A3C",
"> 	c #039E3B",
", 	c #0F9638",
"' 	c #118C37",
") 	c #138B38",
"! 	c #138938",
"~ 	c #4C913D",
"{ 	c #6A7D3C",
"] 	c #6B8C44",
"^ 	c #0B963B",
"/ 	c #009B3C",
"( 	c #02A13A",
"_ 	c #289933",
": 	c #6F5622",
"< 	c #8F411E",
"[ 	c #9C3E1D",
"} 	c #96401E",
"| 	c #734921",
"1 	c #275A2B",
"2 	c #2D8A33",
"3 	c #7E893E",
"4 	c #25913B",
"5 	c #5EAA58",
"6 	c #6AB152",
"7 	c #589D33",
"8 	c #A08562",
"9 	c #D88D5E",
"0 	c #D78350",
"a 	c #D77941",
"b 	c #D66D31",
"c 	c #D86726",
"d 	c #D9601A",
"e 	c #7D614A",
"f 	c #606356",
"g 	c #2B732D",
"h 	c #B5D021",
"i 	c #D6E616",
"j 	c #C9E012",
"k 	c #9DCA32",
"l 	c #88906C",
"m 	c #E3E0C5",
"n 	c #D2CFB7",
"o 	c #D3D0BA",
"p 	c #D5D3BE",
"q 	c #D9D6C0",
"r 	c #D4D0BD",
"s 	c #D1CCBB",
"t 	c #787067",
"u 	c #8DB618",
"v 	c #D5E50B",
"w 	c #F2F003",
"x 	c #DCE80A",
"y 	c #AFD21C",
"z 	c #74862D",
"A 	c #9B977D",
"B 	c #CBC9B4",
"C 	c #CECCBB",
"D 	c #D8D6C5",
"E 	c #E1DDC6",
"F 	c #DDDAC5",
"G 	c #E3E1D3",
"H 	c #A69F94",
"I 	c #5E7037",
"J 	c #A9D418",
"K 	c #CAE00E",
"L 	c #DBE509",
"M 	c #8BA118",
"N 	c #828262",
"O 	c #C9C5B2",
"P 	c #918D80",
"Q 	c #656156",
"R 	c #D1CEBB",
"S 	c #F2EFD5",
"T 	c #DCD9BF",
"U 	c #D1CDB7",
"V 	c #D2CFBD",
"W 	c #C7C2B7",
"X 	c #807A70",
"Y 	c #588023",
"Z 	c #93CB1E",
"` 	c #8BBE1B",
" .	c #4FA52C",
"..	c #447B26",
"+.	c #5B7646",
"@.	c #DCD8C1",
"#.	c #DAD6BF",
"$.	c #CDCAB4",
"%.	c #BBB8A5",
"&.	c #DFDCC6",
"*.	c #D4D1BB",
"=.	c #D0CDBA",
"-.	c #D7D4C4",
";.	c #D2CDC3",
">.	c #7F776B",
",.	c #41702A",
"'.	c #68B228",
").	c #119D35",
"!.	c #3DAF35",
"~.	c #508A25",
"{.	c #4C9630",
"].	c #D1CEBA",
"^.	c #E3DFC5",
"/.	c #CFCCB6",
"(.	c #CFCBB8",
"_.	c #D7D4C2",
":.	c #DFDCC4",
"<.	c #DDD9C1",
"[.	c #E1DECC",
"}.	c #D1CDC2",
"|.	c #827A6C",
"1.	c #3E5F3D",
"2.	c #2D9434",
"3.	c #01A23A",
"4.	c #2DAB36",
"5.	c #4D8625",
"6.	c #549E2B",
"7.	c #C5C1AF",
"8.	c #DCD9C3",
"9.	c #CECBB6",
"0.	c #DBD8C3",
"a.	c #EBE8D0",
"b.	c #D7D3BB",
"c.	c #D8D6CA",
"d.	c #C2BCAF",
"e.	c #847D70",
"f.	c #4E9131",
"g.	c #32AC39",
"h.	c #13A638",
"i.	c #3E8A2B",
"j.	c #669F27",
"k.	c #C6C2B0",
"l.	c #D5D2BE",
"m.	c #D8D4C2",
"n.	c #F1EDD2",
"o.	c #DCDACB",
"p.	c #E0DDD0",
"q.	c #E4E1D0",
"r.	c #E1E0D7",
"s.	c #A79F8C",
"t.	c #748F35",
"u.	c #7ABC38",
"v.	c #1EA939",
"w.	c #1BA336",
"x.	c #629222",
"y.	c #797067",
"z.	c #A39988",
"A.	c #CAC3B2",
"B.	c #D7D4C5",
"C.	c #E7E5D7",
"D.	c #E7E5D9",
"E.	c #BEBAAD",
"F.	c #BBB6A3",
"G.	c #948C7A",
"H.	c #669848",
"I.	c #8DC136",
"J.	c #7ABD37",
"K.	c #25AB38",
"L.	c #289C30",
"M.	c #616B5D",
"N.	c #37902E",
"O.	c #4B883C",
"P.	c #738159",
"Q.	c #9B9380",
"R.	c #A19981",
"S.	c #B3AD8E",
"T.	c #B0A98D",
"U.	c #32823B",
"V.	c #7ABC37",
"W.	c #81BF37",
"X.	c #27A83A",
"Y.	c #2A9231",
"Z.	c #2A802D",
"`.	c #38992D",
" +	c #5C8A46",
".+	c #727470",
"++	c #5C7643",
"@+	c #698641",
"#+	c #647040",
"$+	c #2A7D4A",
"%+	c #5DA939",
"&+	c #98C635",
"*+	c #89C335",
"=+	c #63B636",
"-+	c #579531",
";+	c #59893A",
">+	c #618F30",
",+	c #839435",
"'+	c #6C7F3F",
")+	c #446E49",
"!+	c #488544",
"~+	c #518232",
"{+	c #527C32",
"]+	c #67833E",
"^+	c #627545",
"          . + @ # $ % &         ",
"      * = - ; > , ' ) ! ~ {     ",
"    ] ^ / ( _ : < [ } | 1 2 3   ",
"    4 5 6 7 8 9 0 a b c d e f   ",
"  g h i j k l m n o p q r s t   ",
"  u v w x y z A B C D E F G H   ",
"I J K L M N O P Q R S T U V W X ",
"Y Z `  ...+.@.#.$.%.&.*.=.-.;.>.",
",.'.).!.~.{.].^./.(._.:.<.[.}.|.",
"1.2.3.4.5.6.7.R 8.9.0.a.b.c.d.e.",
"  f.g.h.i.j.k.l.m.n.o.p.q.r.s.  ",
"  t.u.v.w.x.y.z.A.B.C.D.E.F.G.  ",
"  H.I.J.K.L.M.N.O.P.Q.R.S.T.    ",
"    U.V.W.X.Y.Z.`. +.+++@+#+    ",
"      $+%+&+*+=+-+;+>+,+'+      ",
"          )+!+~+{+]+^+          "};
