/* XPM */
static char * xcdoast_16x16_xpm[] = {
"16 16 176 2",
"  	c None",
". 	c #404040",
"+ 	c #4B4D4B",
"@ 	c #F5F7F5",
"# 	c #F9FAF9",
"$ 	c #858885",
"% 	c #E5E5E5",
"& 	c #171717",
"* 	c #898989",
"= 	c #9D9F9D",
"- 	c #D5D5D5",
"; 	c #FEFEFE",
"> 	c #ABADAB",
", 	c #282A27",
"' 	c #8F908F",
") 	c #FCFCFC",
"! 	c #808280",
"~ 	c #777977",
"{ 	c #1F201F",
"] 	c #EBECEB",
"^ 	c #E1D804",
"/ 	c #F3CF0C",
"( 	c #F6DD34",
"_ 	c #F6E73C",
": 	c #F6DB27",
"< 	c #F6D11D",
"[ 	c #F6DD36",
"} 	c #F4EB39",
"| 	c #979795",
"1 	c #D8DAD8",
"2 	c #F5F6F5",
"3 	c #3D3F3D",
"4 	c #4F4F4F",
"5 	c #F7EC56",
"6 	c #EDF00A",
"7 	c #F2E319",
"8 	c #F2DD0B",
"9 	c #F6E239",
"0 	c #F6DE29",
"a 	c #F6D726",
"b 	c #F5E740",
"c 	c #F6F045",
"d 	c #F6F248",
"e 	c #DFD936",
"f 	c #E2E086",
"g 	c #E4DD67",
"h 	c #A49220",
"i 	c #E6C425",
"j 	c #F2E50D",
"k 	c #F5D92F",
"l 	c #F2E419",
"m 	c #F6DD2D",
"n 	c #F6DF35",
"o 	c #F6F046",
"p 	c #F6EE43",
"q 	c #F6EC43",
"r 	c #F6EA3E",
"s 	c #E0DB3A",
"t 	c #F6F142",
"u 	c #F6F146",
"v 	c #F6ED41",
"w 	c #EDD636",
"x 	c #D1C648",
"y 	c #B6B160",
"z 	c #CCBA75",
"A 	c #F4ED42",
"B 	c #F6E941",
"C 	c #F6ED44",
"D 	c #A7A446",
"E 	c #F3EF4E",
"F 	c #F2EF57",
"G 	c #F2F054",
"H 	c #F3F052",
"I 	c #F2EC4C",
"J 	c #CCB37E",
"K 	c #B0AB57",
"L 	c #C6C163",
"M 	c #DFDF2F",
"N 	c #F3D21D",
"O 	c #F6C91E",
"P 	c #F6D42B",
"Q 	c #F6E73D",
"R 	c #D2CD47",
"S 	c #656556",
"T 	c #DEDB36",
"U 	c #F6F147",
"V 	c #F2EE4A",
"W 	c #F3EF51",
"X 	c #F3EE4E",
"Y 	c #F2DA42",
"Z 	c #EFCC30",
"` 	c #D8F20B",
" .	c #EBEF32",
"..	c #CEF20A",
"+.	c #E5EA0A",
"@.	c #F6BC10",
"#.	c #C6B73C",
"$.	c #6B6B56",
"%.	c #EDE83A",
"&.	c #F4F152",
"*.	c #F4F251",
"=.	c #F5E841",
"-.	c #F6D92A",
";.	c #F6E73A",
">.	c #F6C21E",
",.	c #E5EA08",
"'.	c #D2F20B",
").	c #D9F112",
"!.	c #D4E115",
"~.	c #948A38",
"{.	c #565755",
"].	c #AAA844",
"^.	c #F1F249",
"/.	c #F3F149",
"(.	c #F6E43A",
"_.	c #F6D323",
":.	c #F6E33C",
"<.	c #F6EB3F",
"[.	c #F6CD28",
"}.	c #F6C413",
"|.	c #D6CC1A",
"1.	c #97952E",
"2.	c #55554B",
"3.	c #5D5D54",
"4.	c #A19D4E",
"5.	c #CABF45",
"6.	c #E3C41E",
"7.	c #EDD828",
"8.	c #DBD13C",
"9.	c #C7C34C",
"0.	c #A49E44",
"a.	c #706F43",
"b.	c #4E4E4C",
"c.	c #EEEEED",
"d.	c #B1B1B1",
"e.	c #DBDCDB",
"f.	c #D9D9D9",
"g.	c #C3C4C3",
"h.	c #CDCECD",
"i.	c #F8F8F8",
"j.	c #B9BAB9",
"k.	c #FAFAFA",
"l.	c #DBDBDB",
"m.	c #B2B3B2",
"n.	c #DEDEDE",
"o.	c #C5C6C5",
"p.	c #7C7D7C",
"q.	c #7B7C7A",
"r.	c #6F706F",
"s.	c #8D8E8D",
"t.	c #D3D3D3",
"u.	c #CBCCCB",
"v.	c #414241",
"w.	c #B3B4B3",
"x.	c #727372",
"y.	c #D8D8D8",
"z.	c #F4F3F4",
"A.	c #7B7B7B",
"B.	c #F4F4F4",
"C.	c #6A6B6A",
"D.	c #7A7B7A",
"E.	c #DCDCDC",
"F.	c #868686",
"G.	c #696969",
"H.	c #CCCCCC",
"I.	c #C9CAC9",
"J.	c #888888",
"K.	c #A5A6A5",
"L.	c #8A898A",
"M.	c #F1F1F1",
"N.	c #E8E8E8",
"O.	c #EDECED",
"P.	c #E2E2E2",
"Q.	c #E7E8E7",
"R.	c #EAEAEA",
"S.	c #FCFDFC",
". + @ # $                       ",
"% & * = -                       ",
"; > , ' ;                       ",
") ! ~ { ]     ^ / ( _ : < [ }   ",
"| 1 2 3 4 5 6 7 8 9 0 a b c d e ",
"    f g h i j k l m n o p q r s ",
"    t d u v w x y z A B C d d D ",
"  E F G H I J K L M N O P Q R S ",
"T d U V W X Y Z `  ...+.@.#.$.  ",
"%.d &.*.=.-.;.>.,.'.).!.~.{.    ",
"].^./.(._.:.<.[.}.|.1.2.        ",
"3.4.5.6.7.8.9.0.a.b.            ",
"c.d.e.; f.g.; ; h.; i.j.k.l.m.n.",
"o.p.q.; r.s.t.u.v.; w.x.y.z.A.B.",
"o.' A.; C.D.E.F.G.H.I.J.K.; L.; ",
"B.M.N.; O.P.; Q.k.R.; l.S.; N.; "};
