/* XPM */
static char *magick[] = {
/* columns rows colors chars-per-pixel */
"32 32 124 2",
"   c #000000",
".  c #080606",
"X  c #0b0b0b",
"o  c #121212",
"O  c #1a1313",
"+  c #1c1c1c",
"@  c #242424",
"#  c #2c2524",
"$  c #2a2929",
"%  c #323232",
"&  c #3d3d3d",
"*  c #23206d",
"=  c #272579",
"-  c #28247d",
";  c #424242",
":  c #4b4b4b",
">  c #535353",
",  c #5a5a5a",
"<  c #535064",
"1  c #5a586e",
"2  c #635958",
"3  c #626263",
"4  c #6d6d6d",
"5  c #7a7063",
"6  c #727274",
"7  c #7b7b7b",
"8  c #2b2785",
"9  c #2b2a86",
"0  c #2d2b8d",
"q  c #2f2d91",
"w  c #302e93",
"e  c #303096",
"r  c #323298",
"t  c #04b3b9",
"y  c #07e7e9",
"u  c #0afffe",
"i  c #847a6a",
"p  c #95846d",
"a  c #958670",
"s  c #938a7a",
"d  c #998972",
"f  c #a39176",
"g  c #a79479",
"h  c #aa987d",
"j  c #848484",
"k  c #8d8680",
"l  c #8c8c8c",
"z  c #999082",
"x  c #939393",
"c  c #9b9b9b",
"v  c #a29789",
"b  c #a1998c",
"n  c #ae9c83",
"m  c #ab9d89",
"M  c #b39e81",
"N  c #a8a195",
"B  c #aea69b",
"V  c #afa89c",
"C  c #baab98",
"Z  c #a3a3a3",
"A  c #ababab",
"S  c #b2aba1",
"D  c #b7b1a8",
"F  c #beb3a3",
"G  c #bbb5ac",
"H  c #b5b5b5",
"J  c #beb8b0",
"K  c #bcbcbc",
"L  c #c2ac8d",
"P  c #ccb494",
"I  c #c9b79e",
"U  c #d2b998",
"Y  c #c2bdb5",
"T  c #dac09e",
"R  c #c6c1b9",
"E  c #c9c5bd",
"W  c #d7c7ae",
"Q  c #dec4a1",
"!  c #d5cabb",
"~  c #dccebb",
"^  c #e0c6a3",
"/  c #e2c8a4",
"(  c #e4cdac",
")  c #e6d2b6",
"_  c #e3d3bb",
"`  c #e8d3b5",
"'  c #e9d6bb",
"]  c #ebd9bf",
"[  c #c3c3c3",
"{  c #cbc7c0",
"}  c #cdc9c2",
"|  c #cccccc",
" . c #d0ccc5",
".. c #d1cec9",
"X. c #d5d2cd",
"o. c #d8d4cf",
"O. c #d2d2d2",
"+. c #d9d6d1",
"@. c #dcd9d4",
"#. c #dbdbdb",
"$. c #ecdbc3",
"%. c #ebddc9",
"&. c #e0ddd9",
"*. c #eee0cc",
"=. c #e3e1dd",
"-. c #eae0d2",
";. c #eee7dd",
":. c #f0e2ce",
">. c #f1e5d4",
",. c #f3e9dc",
"<. c #e4e3e2",
"1. c #e8e6e4",
"2. c #ebe9e6",
"3. c #ecebea",
"4. c #f5ede2",
"5. c #f0efed",
"6. c #f7f0e6",
"7. c #f7f2ec",
"8. c #f8f3eb",
"9. c #f4f3f2",
"0. c #faf6f0",
"q. c #fbf8f5",
"w. c #fefefe",
"e. c None",
/* pixels */
"e.e., > > > ; & & $ @ @ O o X .                   e.e.e.e.e.e.e.",
"e., w., [ w.w.w.w.w.w.w.w.w.w.w.w.w.w.w.w.q.      e.e.e.e.e.e.e.",
"> w.w.> [ w.w.w.w.w.w.w.w.w.w.w.w.w.w.q.q.8.      e.e.e.e.e.e.e.",
", , > , K w.7 c w.7 , 7 , c <.7 , w., , 8.8.        e.e.e.e.e.e.",
"> [ K [ K w.w.w.w.w.w.w.w.w.w.w.w.w.q.0.8.6.  Z 3.  e.e.e.e.e.e.",
"> w.w.w.w.w.w.w.w.w.w.O.l 6 6 4 j H 8.8.6.4.  Z 3.  e.e.e.e.e.e.",
"; w.w., 7 <.7 H w.[ 3 $ $ $ $ &   & 3 Z 4.,.  Z 3.  e.e.e.e.e.e.",
"; w.w.w.w.w.w.w.A $ $ H 3.w.1.O.w.| o o 6 %.  Z 3.  e.e.e.e.e.e.",
"& w.w., w.7 w.A $ Z 3.w.q.w.w.w.w.w.q.Z @ 7 $ c 3.  e.e.e.e.e.e.",
"% w.w.w.w.w.[ $ Z q.#.w.A #.A O.=.3.9.+.A o ; l <.  e.e.e.e.e.e.",
"$ w.w.w.w.w.& 4 3.w.w.w.q.9.9.0.3.=.2.+.9.4 o 7 |     e.e.e.e.e.",
"@ w.w., <.| $ [ 3.#.O.H [ k J 3.b V =.1.9.K @ , H     e.e.e.e.e.",
"+ w.w.w.w., @ w.O.#.3.9.w.q.1.=.X.E Y @.=.3.+ $ Z       e.e.e.e.",
"O w.w., w.$ 6 w.w.w.w.w.w.9.3.@.+...} X.+.7., + c       e.e.e.e.",
"o w.w.w.w.$ 6 w.w.w.w.w.9.3.@.@. .} R }  .=., + x       e.e.e.e.",
"X w.w., O.$ 6 O.H | =.9.9.+.&.R { G S v N +., X x       e.e.e.e.",
". w.w.w.w.$ , q.1.} J s E b Y V 5 z V G X.+.: @ l       e.e.e.e.",
"  w.w.w.w.H $ #.o.3.2.@.@.@.+.o.{ { { { E E @ : x       e.e.e.e.",
"  w.w.7 H w.$ 7 2.1.1.D J z G D i S V z Y > . , l       e.e.e.e.",
"  w.w.w.w.q.Z O c 3.@.@.@.} } } } Y { +.7 . O 3 x       e.e.e.e.",
"  w.w.w.w.8.8.7 $ A 2.1.=.| G G .. .J 7 o # u   c       e.e.e.e.",
"  w.r r e e 8.;.4 X   K 1.+.X.&.E c ; . # y [   x @     e.e.e.e.",
"  w.w.q q.8.q ,.9 6 & o   : & > + X +   t & 2 [   %     e.e.e.e.",
"  w.q.e 8.6.w ,.0 ! F 1 3 o @ @ > d p p     ; > [         e.e.e.",
"  q.q.r 6.4.w ,.0 %.~ = C m < d d d d f g f   & > [         e.e.",
"  q.8.w 4.4.w >.0 *.0 _ W I * n h h h L P L >   ; > [         e.",
"  8.r r w 0 ,.>.:.0 $.' ) 8 8 - U P U T T T > 6   & > [         ",
"  8.4.4.,.>.>.:.%.$.] ' ` ( / / Q ^ ^ / / / $ j A   ; > [       ",
"                                              j K :   & > [     ",
"        Z c Z c c c c x x x x x x l l l l l l x [ &     & > [   ",
"        1.<.<.#.#.#.#.#.+.O.O.O.| | | [ [ [ [ [ |         & &   ",
"e.e.e.                                                          "
};
