/* XPM */
static char *magick[] = {
/* columns rows colors chars-per-pixel */
"16 16 88 1",
"  c #050405",
". c #060807",
"X c #090b0d",
"o c #0e0f12",
"O c #0c1013",
"+ c #111316",
"@ c #121618",
"# c #14181b",
"$ c #181a1d",
"% c #151d22",
"& c #1d1e21",
"* c #1b2024",
"= c #1c252c",
"- c #1f2a31",
"; c #212427",
": c #202529",
"> c #23282c",
", c #222c33",
"< c #292d31",
"1 c #26323a",
"2 c #2b3135",
"3 c #29343b",
"4 c #313436",
"5 c #313639",
"6 c #33393d",
"7 c #3a3c3e",
"8 c #293640",
"9 c #2c3a44",
"0 c #2e3e48",
"q c #343c42",
"w c #303f49",
"e c #2f404b",
"r c #364047",
"t c #32424e",
"y c #394246",
"u c #3b444b",
"i c #3e484f",
"p c #354652",
"a c #3a4752",
"s c #3a4b55",
"d c #3b4e5b",
"f c #3d515f",
"g c #3e5360",
"h c #43464a",
"j c #45494b",
"k c #4a4c4d",
"l c #424c53",
"z c #4b4e50",
"x c #44515a",
"c c #4d5154",
"v c #49545b",
"b c #515355",
"n c #51585d",
"m c #595a5b",
"M c #445560",
"N c #425866",
"B c #455c6a",
"V c #4c5b65",
"C c #4b5e68",
"Z c #47606f",
"A c #4b606c",
"S c #4a6273",
"D c #4d687b",
"F c #51616c",
"G c #5e6264",
"H c #526572",
"J c #566975",
"K c #546c7d",
"L c #586974",
"P c #586d7a",
"I c #7c5863",
"U c #626364",
"Y c #67686a",
"T c #696b6c",
"R c #727474",
"E c #536d80",
"W c #547184",
"Q c #5a7483",
"! c #5a788c",
"~ c #627886",
"^ c #7a7680",
"/ c #7c7982",
"( c #7b7f88",
") c #7f8182",
"_ c #7c818d",
"` c #922e36",
"' c #814e5b",
"] c #868686",
/* pixels */
"'```I~DSZBNfdppp",
"_//^(~SZBNfddpw0",
"!QWKDSZBNfddpw00",
"!WEDSSBNMfspp008",
"PJQHJVFBMxxlswuq",
"x.FFL$&L#>V*oV&#",
"Q:$PCi v#>xq 7&#",
"KVXiHFo6$>ll#;;+",
"xP3Ovx6l$;lq5q&+",
"nxCclaj3qq3<>>2<",
"G99b52Rb)47RTTk4",
"3kYUb2YGmj7ch]Um",
"nq*mv,1>c>*,+$o#",
"aty1881,-=*%#+OX",
"p0h181,-=**#@OXX",
"t09311-=*%$OOXX."
};
