/* XPM */
static char *magick[] = {
/* columns rows colors chars-per-pixel */
"16 16 64 1",
"  c #000000",
". c #151515",
"X c #132436",
"o c #262626",
"O c #2c2c2c",
"+ c #353535",
"@ c #3b383b",
"# c #301176",
"$ c #612500",
"% c #413c41",
"& c #586b00",
"* c #414141",
"= c #484448",
"- c #4b4b45",
"; c #494949",
": c #52524c",
"> c #515251",
", c #5a5952",
"< c #5a5c5a",
"1 c #616361",
"2 c #6a6b68",
"3 c #717371",
"4 c #7a7473",
"5 c #7d7a76",
"6 c #797a79",
"7 c #0852b5",
"8 c #0072ff",
"9 c #4502d4",
"0 c #5400ff",
"q c #36907d",
"w c #0cf609",
"e c #0aff07",
"r c #00ffc4",
"t c #af000e",
"y c #b54f00",
"u c #827b7b",
"i c #a76f68",
"p c #ff001a",
"a c #ff6b00",
"s c #fe00e1",
"d c #c4f502",
"f c #cbff00",
"g c #868386",
"h c #898982",
"j c #8e8c8e",
"k c #908d89",
"l c #96938f",
"z c #98918a",
"x c #969496",
"c c #9e9a9e",
"v c #a78a82",
"b c #a7a098",
"n c #a9a9a2",
"m c #b6aea7",
"M c #b2aeaa",
"N c #bdbdb5",
"B c #c7c7be",
"V c #cfcbbe",
"C c #d7d3c7",
"Z c #dfd7cf",
"A c #dfdfd7",
"S c #e7e7df",
"D c #efebdf",
"F c None",
/* pixels */
"FFFFFFFFFFFFFFFF",
"FF            FF",
"F              F",
"F  DDSAZCVBNm5  ",
"   6cgg31>;=@x  ",
"   6321<>>=*+k  ",
"   gcxgpp<6>Oht ",
"   6g323ss1Oos  ",
"   1g232<0#O9u  ",
"   <>>;%@78X.4  ",
"   >xjk332qr>4  ",
"   Mnbvikw2ee,  ",
"F    -:<f,, f&  ",
"F      $    ya  ",
"FF              ",
"FFF          FFF"
};
