/* XPM */
static char *magick[] = {
/* columns rows colors chars-per-pixel */
"32 32 143 2",
"   c #000000",
".  c #0e0c0e",
"X  c #160003",
"o  c #151415",
"O  c #1f1f1f",
"+  c #1d1723",
"@  c #132436",
"#  c #183b3e",
"$  c #32002b",
"%  c #252425",
"&  c #262a26",
"*  c #2b2b2b",
"=  c #2d312d",
"-  c #323332",
";  c #3c373c",
":  c #393839",
">  c #0b1342",
",  c #0c206a",
"<  c #301176",
"1  c #0b4849",
"2  c #104649",
"3  c #3c7c6a",
"4  c #612500",
"5  c #403b40",
"6  c #791857",
"7  c #603c5a",
"8  c #41413b",
"9  c #586b00",
"0  c #596d30",
"q  c #414141",
"w  c #4a4347",
"e  c #484448",
"r  c #4c4c46",
"t  c #494b48",
"y  c #53514c",
"u  c #515251",
"i  c #5b5a53",
"p  c #595b59",
"a  c #496643",
"s  c #596259",
"d  c #52754e",
"f  c #654162",
"g  c #64645d",
"h  c #756e5f",
"j  c #616261",
"k  c #6e6c63",
"l  c #696b68",
"z  c #716b60",
"x  c #73756c",
"c  c #79766d",
"v  c #79796d",
"b  c #717371",
"n  c #797472",
"m  c #7b7a74",
"M  c #797979",
"N  c #012ef0",
"B  c #002fff",
"V  c #0852b5",
"C  c #0071fe",
"Z  c #770abe",
"A  c #4502d4",
"S  c #4e01e5",
"D  c #5204ee",
"F  c #5400ff",
"G  c #2f8e42",
"H  c #36907d",
"J  c #0cf609",
"K  c #0aff07",
"L  c #0ae63f",
"P  c #04f33f",
"I  c #00ff3e",
"U  c #0ddf42",
"Y  c #5db300",
"T  c #1fa582",
"R  c #06e6b0",
"E  c #00ffc4",
"W  c #00eef6",
"Q  c #00f2fa",
"!  c #af000e",
"~  c #b54f00",
"^  c #99675c",
"/  c #807c79",
"(  c #997c6f",
")  c #a76f68",
"_  c #e7071f",
"`  c #ff001a",
"'  c #ff6b00",
"]  c #bc1b80",
"[  c #9100f5",
"{  c #9800ff",
"}  c #ef0294",
"|  c #f60097",
" . c #ff009e",
".. c #fe00e1",
"X. c #97ba10",
"o. c #bb841b",
"O. c #878479",
"+. c #88ff00",
"@. c #b9ea00",
"#. c #f1a200",
"$. c #ffad00",
"%. c #c4f502",
"&. c #cbff00",
"*. c #868385",
"=. c #8d8b84",
"-. c #8e8c8e",
";. c #918a83",
":. c #908d89",
">. c #949287",
",. c #93928d",
"<. c #98918a",
"1. c #9c998f",
"2. c #969496",
"3. c #999591",
"4. c #9b9b94",
"5. c #9e9c9c",
"6. c #a78a82",
"7. c #a09991",
"8. c #a19d99",
"9. c #a7a098",
"0. c #a6a6a6",
"q. c #a9a5a1",
"w. c #a9a9a2",
"e. c #b2ada2",
"r. c #b2aeaa",
"t. c #b1b1a9",
"y. c #bab2aa",
"u. c #b6b2b6",
"i. c #bbb7b3",
"p. c #bbbab3",
"a. c #c7c5be",
"s. c #cfc7be",
"d. c #cfcbbe",
"f. c #cfcfc7",
"g. c #d7cfc7",
"h. c #d7d3c7",
"j. c #d7d7cf",
"k. c #dfd7cf",
"l. c #dfded7",
"z. c #e7e3d7",
"x. c #e7e7df",
"c. c #efebdf",
"v. c None",
/* pixels */
"v.v.v.v.v.v.v.v.v.v.v.v.v.v.v.v.v.v.v.v.v.v.v.v.v.v.v.v.v.v.v.v.",
"v.v.v.v.v.v.                                            v.v.v.v.",
"v.v.v.v.                                                v.v.v.v.",
"v.v.                                                        v.v.",
"v.v.                                                        v.v.",
"v.                                                          v.v.",
"v.          c.c.c.c.x.z.l.l.l.j.h.g.d.d.a.a.p.i.r.4.m         v.",
"          c.u.M M M M b b l l j j p p p u t t e q M ;.        v.",
"          c.M -.5.2.*.*.*.b b l j j u t e e e e 5 ; ,.          ",
"          c.M 0.2.*.2.l 2.2.b *.M l *.5.p -.p 5 - - :.          ",
"          c.M 0.b b l l j j p p u u u t e e 5 ; - = :.          ",
"          z.M -.b l l j j p p u u u t e q 5 : : = * ;.          ",
"          z.*.2.5.-.2.b *.l ` ` ` _ p p M j y = * % =.X !       ",
"          l.b M M j j p p u e }  . .6 5 : : * - % % ] |         ",
"          l.M *.*.b b l l l b 7 ......f j - = & & O ..$         ",
"          j.l b j s l l u t t e Z { { { * = * & + [ /           ",
"          j.j l *.l l l b j l l p D F F < & * % A S /           ",
"          h.j p p u u t t e q 5 : : B B B N O , > o n           ",
"          h.p p u u u t e e ; 5 : = V C C C @ C o o n           ",
"          d.p u u u t e q 5 : : = - & # W 2 Q 2 . . n           ",
"          s.u u 2.2.-.M -.M b *.b l l 3 H T E R u . n           ",
"          e.p.p.y.r.e.w.q.q.8.8.7.3.L U M P I I G n g           ",
"            r.e.w.q.8.8.6.7.) ( <.^ J x k d K K K a i           ",
"v.                  8 r h y v v 0 +.y i t y Y +.+.+.            ",
"v.                  r s y y s u %.X.i h i s   @.&.&.9           ",
"v.            p >.7.,.>.=.:.O.o.z / / / v n z y $.$.$.#.        ",
"v.v.                        4 '                 ~ ' ' '         ",
"v.v.v.                                                          ",
"v.v.v.                                                        v.",
"v.v.v.v.                                                  v.v.v.",
"v.v.v.v.v.v.                                        v.v.v.v.v.v.",
"v.v.v.v.v.v.v.v.v.v.v.v.v.v.v.v.v.v.v.v.v.v.v.v.v.v.v.v.v.v.v.v."
};
